<?xml version="1.0" encoding="UTF-8"?>
<svg width="25px" height="30px" viewBox="0 0 25 30" version="1.1" xmlns="http://www.w3.org/2000/svg" xmlns:xlink="http://www.w3.org/1999/xlink">
    <!-- Generator: Sketch 55.2 (78181) - https://sketchapp.com -->
    <title>Cart</title>
    <desc>Created with Sketch.</desc>
    <g id="Cart" stroke="none" stroke-width="1" fill="none" fill-rule="evenodd">
        <path d="M3,6.99874609 C3,6.44715386 3.45092539,6 3.99477117,6 L21.0052288,6 C21.5546258,6 22,6.43861485 22,6.99874609 L22,26.0012539 C22,26.5528461 21.5490746,27 21.0052288,27 L3.99477117,27 C3.44537422,27 3,26.5613852 3,26.0012539 L3,6.99874609 Z M4,26.0012539 C4,26.0057176 3.99427135,26 3.99464736,26 L21,26 L21,6.99874609 L4.0001016,7 L4,26.0012539 Z" id="Rectangle-10" fill="#1F1A1A" fill-rule="nonzero"></path>
        <path d="M8.5,11.4957261 L8.5,7.50487556 C8.5,5.29475661 10.2942058,3.5 12.5,3.5 C14.7130635,3.5 16.5,5.28603082 16.5,7.50545067 L16.5,11.4957261 L17.5,11.4957261 L17.5,7.50545067 C17.5,4.73363254 15.2652347,2.5 12.5,2.5 C9.74185238,2.5 7.5,4.74254056 7.5,7.50487556 L7.5,11.4957261 L8.5,11.4957261 Z" id="Rectangle-2" fill="#1F1A1A" fill-rule="nonzero"></path>
    </g>
</svg>